<svg width="38" height="38" viewBox="0 0 38 38" fill="none" xmlns="http://www.w3.org/2000/svg">
<circle cx="19" cy="19" r="19" fill="#3E0288" fill-opacity="0.05"/>
<circle cx="19" cy="19" r="18.5" stroke="#3E0288" stroke-opacity="0.01"/>
<mask id="mask0_1_2263" style="mask-type:luminance" maskUnits="userSpaceOnUse" x="8" y="8" width="22" height="22">
<path d="M8 8H30V30H8V8Z" fill="#3E0288"/>
</mask>
<g mask="url(#mask0_1_2263)">
<path fill-rule="evenodd" clip-rule="evenodd" d="M26.9089 22.6658C27.1078 22.9098 27.2215 23.1853 27.249 23.4923C27.2756 23.7817 27.2224 24.0575 27.0895 24.3199C26.9566 24.5815 26.765 24.7898 26.5138 24.9447C26.2517 25.1066 25.9593 25.1875 25.6375 25.1875H22.4374C22.4374 26.1367 22.101 26.947 21.43 27.6181C20.759 28.2894 19.9487 28.625 18.9999 28.625C18.0502 28.625 17.2399 28.2894 16.5689 27.6181C15.8979 26.947 15.5624 26.1367 15.5624 25.1875H12.366C12.0433 25.1875 11.7509 25.1071 11.4887 24.9462C11.2367 24.7919 11.0442 24.584 10.9103 24.3226C10.7765 24.0599 10.7224 23.7834 10.749 23.4932C10.7765 23.186 10.8902 22.9101 11.09 22.6655C11.1386 22.6069 11.2083 22.522 11.2999 22.4106C11.6043 22.0434 11.8178 21.7688 11.9416 21.5867C12.1313 21.3062 12.2826 21.0145 12.3953 20.7115C12.6777 19.9552 12.8188 18.8311 12.8198 17.3393C12.8198 15.6549 13.2167 14.2938 14.0105 13.2562C14.5871 12.5023 15.3901 11.9133 16.4204 11.4891C16.4287 11.4855 16.4388 11.4779 16.4498 11.4663C16.4516 11.4645 16.4543 11.4614 16.4543 11.4614C16.623 10.8926 16.9163 10.4183 17.3334 10.0383C17.8193 9.5961 18.3738 9.375 18.9999 9.375C19.6242 9.375 20.1797 9.59592 20.6655 10.0377C21.0826 10.4174 21.3768 10.8914 21.5464 11.4596C21.5482 11.4617 21.5501 11.464 21.5528 11.4666C21.5638 11.4785 21.5739 11.4861 21.5813 11.4893C22.6098 11.9127 23.4127 12.502 23.9902 13.2572C24.7841 14.2958 25.1819 15.6565 25.1819 17.3393C25.1819 18.8313 25.3222 19.9555 25.6036 20.7118C25.7163 21.0146 25.8676 21.3063 26.0583 21.5868C26.1811 21.769 26.3947 22.0436 26.699 22.4108C26.7907 22.522 26.8613 22.6072 26.9089 22.6658ZM16.9374 25.1875C16.9374 25.757 17.1382 26.2432 17.5415 26.6459C17.9439 27.0486 18.4297 27.25 18.9999 27.25C19.5692 27.25 20.055 27.0486 20.4583 26.6459C20.8608 26.2432 21.0624 25.757 21.0624 25.1875H16.9374ZM21.7499 23.8125H12.366C12.2514 23.8125 12.1744 23.7742 12.135 23.6975C12.1066 23.641 12.113 23.587 12.1552 23.5355C12.201 23.4791 12.2688 23.3964 12.3596 23.2873C12.6914 22.8863 12.9316 22.5765 13.0792 22.358C13.3312 21.9864 13.5329 21.5976 13.6842 21.1916C14.0233 20.2807 14.1938 18.9965 14.1948 17.3393C14.1948 15.9653 14.4973 14.8826 15.1023 14.0914C15.5285 13.5341 16.1418 13.0906 16.9429 12.7609C17.129 12.6843 17.2949 12.5709 17.4398 12.4208C17.5993 12.2557 17.7083 12.0703 17.7688 11.8644C17.8651 11.5351 18.0283 11.2653 18.2593 11.0548C18.482 10.8516 18.7295 10.75 18.9999 10.75C19.2703 10.75 19.5169 10.8517 19.7406 11.0549C19.9716 11.2653 20.1357 11.536 20.2328 11.8672C20.2933 12.0698 20.4024 12.2534 20.5601 12.4181C20.7058 12.57 20.8718 12.6842 21.0578 12.7607C21.8581 13.09 22.4713 13.5338 22.8985 14.0924C23.5035 14.8844 23.8069 15.9667 23.8069 17.3393C23.8069 18.9964 23.9756 20.2805 24.3148 21.1915C24.466 21.5976 24.6677 21.9864 24.9198 22.3581C25.0673 22.5766 25.3075 22.8864 25.6393 23.2875C25.7301 23.3963 25.7979 23.4789 25.8438 23.5353C25.885 23.5864 25.8914 23.6408 25.863 23.6983C25.8236 23.7745 25.7493 23.8125 25.6375 23.8125H21.7499Z" fill="#3E0288"/>
</g>
</svg>
