<svg width="19" height="20" viewBox="0 0 19 20" fill="none" xmlns="http://www.w3.org/2000/svg">
<mask id="mask0_1_2726" style="mask-type:luminance" maskUnits="userSpaceOnUse" x="0" y="0" width="19" height="20">
<path d="M0 0H18.3061V20H0V0Z" fill="white"/>
</mask>
<g mask="url(#mask0_1_2726)">
<path d="M9.15313 8.125C10.4169 8.125 11.4414 9.24429 11.4414 10.625C11.4414 12.0057 10.4169 13.125 9.15313 13.125C7.88936 13.125 6.86487 12.0057 6.86487 10.625C6.86487 9.24429 7.88936 8.125 9.15313 8.125Z" fill="#3E0288"/>
<path d="M15.4458 5.625H13.3363C13.229 5.625 13.096 5.54922 12.9923 5.42969L12.0649 3.83047C12.0575 3.81778 12.0498 3.8054 12.0416 3.79334C12.0335 3.78128 12.0249 3.76957 12.0159 3.7582C11.6955 3.35 11.2626 3.125 10.7978 3.125H7.5084C7.04359 3.125 6.61062 3.35 6.29026 3.7582C6.28128 3.76957 6.27271 3.78128 6.26454 3.79334C6.25636 3.8054 6.24861 3.81778 6.24127 3.83047L5.31381 5.43203C5.23444 5.52656 5.12289 5.62734 5.00561 5.62734V5.31484C5.00561 5.14225 4.94976 4.99494 4.83805 4.8729C4.72635 4.75086 4.59152 4.68984 4.43354 4.68984H3.57545C3.41747 4.68984 3.28264 4.75086 3.17094 4.8729C3.05923 4.99494 3.00338 5.14225 3.00338 5.31484V5.62734H2.86036C2.38666 5.62788 1.98232 5.81113 1.64735 6.17709C1.31239 6.54305 1.14466 6.9848 1.14417 7.50234V15C1.14466 15.5175 1.31239 15.9593 1.64735 16.3253C1.98232 16.6912 2.38666 16.8745 2.86036 16.875H15.4458C15.9195 16.8745 16.3239 16.6912 16.6589 16.3253C16.9938 15.9593 17.1616 15.5175 17.162 15V7.5C17.1616 6.98246 16.9938 6.5407 16.6589 6.17475C16.3239 5.80879 15.9195 5.62554 15.4458 5.625ZM9.15309 14.375C8.20526 14.375 7.39623 14.0089 6.72602 13.2766C6.05581 12.5444 5.72069 11.6605 5.72069 10.625C5.72069 9.58947 6.05581 8.70558 6.72602 7.97335C7.39623 7.24112 8.20526 6.875 9.15309 6.875C10.1009 6.875 10.9099 7.24112 11.5801 7.97335C12.2504 8.70558 12.5855 9.58947 12.5855 10.625C12.5844 11.66 12.2489 12.5435 11.579 13.2754C10.9091 14.0073 10.1005 14.3738 9.15309 14.375Z" fill="#3E0288"/>
</g>
</svg>
