<svg width="20" height="20" viewBox="0 0 20 20" fill="none" xmlns="http://www.w3.org/2000/svg">
<mask id="mask0_1_2850" style="mask-type:luminance" maskUnits="userSpaceOnUse" x="0" y="0" width="20" height="20">
<path d="M0 0H20V20H0V0Z" fill="white"/>
</mask>
<g mask="url(#mask0_1_2850)">
<mask id="mask1_1_2850" style="mask-type:luminance" maskUnits="userSpaceOnUse" x="0" y="0" width="20" height="20">
<path d="M0 0H20V20H0V0Z" fill="white"/>
</mask>
<g mask="url(#mask1_1_2850)">
<path d="M16.5625 3.125H3.4375C2.83371 3.12565 2.31834 3.33944 1.89139 3.76639C1.46444 4.19334 1.25065 4.70871 1.25 5.3125V14.6875C1.25065 15.2913 1.46444 15.8067 1.89139 16.2336C2.31834 16.6606 2.83371 16.8744 3.4375 16.875H16.5625C17.1663 16.8744 17.6817 16.6606 18.1086 16.2336C18.5356 15.8067 18.7494 15.2913 18.75 14.6875V5.3125C18.7494 4.70871 18.5356 4.19334 18.1086 3.76639C17.6817 3.33944 17.1663 3.12565 16.5625 3.125ZM16.0086 6.74336L10.3836 11.1184C10.2708 11.2061 10.1429 11.2499 10 11.2499C9.85709 11.2499 9.72923 11.2061 9.61641 11.1184L3.99141 6.74336C3.8523 6.63831 3.77132 6.49939 3.74845 6.32659C3.72559 6.15378 3.76765 5.99857 3.87464 5.86097C3.98164 5.72336 4.12169 5.64434 4.2948 5.62391C4.46791 5.60347 4.6225 5.64772 4.75859 5.75664L10 9.8332L15.2414 5.75664C15.3778 5.65366 15.5306 5.61338 15.7 5.63579C15.8694 5.65821 16.0066 5.73686 16.1115 5.87176C16.2164 6.00666 16.2588 6.15896 16.2388 6.32866C16.2187 6.49835 16.142 6.63659 16.0086 6.74336Z" fill="#3E0288"/>
</g>
</g>
</svg>
