<svg width="23" height="20" viewBox="0 0 23 20" fill="none" xmlns="http://www.w3.org/2000/svg">
<g clip-path="url(#clip0_1_2908)">
<path d="M8.59065 7.50008C8.81284 6.94314 9.25139 6.4735 9.82864 6.17436C10.4059 5.87521 11.0846 5.76586 11.7445 5.86567C12.4044 5.96549 13.003 6.26802 13.4342 6.71969C13.8654 7.17136 14.1014 7.74302 14.1004 8.33341C14.1004 10.0001 11.2652 10.8334 11.2652 10.8334M11.3408 14.1667H11.3502M20.7914 10.0001C20.7914 14.6025 16.5602 18.3334 11.3408 18.3334C6.12134 18.3334 1.89014 14.6025 1.89014 10.0001C1.89014 5.39771 6.12134 1.66675 11.3408 1.66675C16.5602 1.66675 20.7914 5.39771 20.7914 10.0001Z" stroke="#3E0288" stroke-width="2" stroke-linecap="round" stroke-linejoin="round"/>
</g>
<defs>
<clipPath id="clip0_1_2908">
<rect width="22.6816" height="20" fill="white"/>
</clipPath>
</defs>
</svg>
