<svg width="20" height="20" viewBox="0 0 20 20" fill="none" xmlns="http://www.w3.org/2000/svg">
<g clip-path="url(#clip0_1_2943)">
<mask id="mask0_1_2943" style="mask-type:luminance" maskUnits="userSpaceOnUse" x="0" y="0" width="20" height="20">
<path d="M0 0H20V20H0V0Z" fill="white"/>
</mask>
<g mask="url(#mask0_1_2943)">
<path d="M18.6848 16.9375L15.1691 8.42188C15.1027 8.26107 14.9973 8.1323 14.8527 8.03556C14.7081 7.93883 14.5488 7.89046 14.3748 7.89046C14.2008 7.89046 14.0415 7.93883 13.897 8.03556C13.7524 8.1323 13.6469 8.26107 13.5805 8.42188L10.0648 16.9375C9.97289 17.1572 9.97233 17.3771 10.0632 17.5972C10.154 17.8173 10.3095 17.9728 10.5296 18.0637C10.7498 18.1546 10.9696 18.154 11.1893 18.0621C11.409 17.9702 11.5637 17.8139 11.6535 17.5934L12.3695 15.8594H16.3801L17.0961 17.5934C17.1625 17.7542 17.268 17.8831 17.4126 17.9799C17.5573 18.0766 17.7166 18.125 17.8906 18.125C18.1966 18.1248 18.4346 17.9975 18.6046 17.7432C18.7746 17.4888 18.8016 17.2203 18.6848 16.9375ZM13.0793 14.1406L14.375 11.002L15.6707 14.1406H13.0793ZM10.4625 13.3953C10.6015 13.2033 10.6524 12.9903 10.6151 12.7562C10.5778 12.5221 10.4632 12.3354 10.2715 12.1961C10.2637 12.1902 9.68555 11.7613 8.84609 10.8394C10.3949 8.74258 11.2723 6.35703 11.6301 5.23437H12.8906C13.1279 5.23437 13.3305 5.15047 13.4983 4.98267C13.6661 4.81487 13.75 4.61231 13.75 4.375C13.75 4.13769 13.6661 3.93513 13.4983 3.76733C13.3305 3.59953 13.1279 3.51562 12.8906 3.51562H8.35938V2.73438C8.35938 2.49707 8.27547 2.29451 8.10767 2.1267C7.93987 1.9589 7.73731 1.875 7.5 1.875C7.26269 1.875 7.06013 1.9589 6.89233 2.1267C6.72453 2.29451 6.64062 2.49707 6.64062 2.73438V3.51562H2.10938C1.87207 3.51562 1.66951 3.59953 1.5017 3.76733C1.3339 3.93513 1.25 4.13769 1.25 4.375C1.25 4.61231 1.3339 4.81487 1.5017 4.98267C1.66951 5.15047 1.87207 5.23438 2.10938 5.23438H9.81445C9.44258 6.28711 8.75781 7.94922 7.71328 9.46719C6.48633 7.83906 6.03047 6.78555 6.02695 6.77695C5.93349 6.56096 5.7776 6.409 5.55928 6.32108C5.34097 6.23316 5.12327 6.23467 4.9062 6.32561C4.68912 6.41655 4.53536 6.57065 4.44489 6.78792C4.35443 7.0052 4.3534 7.22289 4.4418 7.44102C4.46445 7.49492 5.01016 8.77812 6.50664 10.7195C6.54258 10.766 6.57812 10.8113 6.61367 10.8566C5.08086 12.5891 3.57695 13.6637 2.94766 14.0105C2.73909 14.1241 2.60125 14.2947 2.53415 14.5225C2.46704 14.7503 2.49034 14.9684 2.60405 15.1769C2.71776 15.3854 2.88853 15.5231 3.11637 15.59C3.34422 15.6569 3.56233 15.6334 3.7707 15.5195C3.85508 15.4734 5.66914 14.4691 7.74063 12.1762C8.62031 13.1168 9.225 13.5605 9.26133 13.5863C9.45355 13.726 9.66698 13.7771 9.9016 13.7397C10.1362 13.7023 10.3232 13.5878 10.4625 13.3953Z" fill="#3E0288"/>
</g>
</g>
<defs>
<clipPath id="clip0_1_2943">
<rect width="20" height="20" fill="white"/>
</clipPath>
</defs>
</svg>
