<svg width="20" height="20" viewBox="0 0 20 20" fill="none" xmlns="http://www.w3.org/2000/svg">
<g clip-path="url(#clip0_1_2937)">
<mask id="mask0_1_2937" style="mask-type:luminance" maskUnits="userSpaceOnUse" x="0" y="0" width="20" height="20">
<path d="M0 0H20V20H0V0Z" fill="white"/>
</mask>
<g mask="url(#mask0_1_2937)">
<path d="M10.3125 18.7501C7.80996 18.7501 5.67391 17.8653 3.90434 16.0957C2.13478 14.3262 1.25 12.1901 1.25 9.68759C1.25 6.01571 3.35938 2.72352 6.62539 1.30204C6.74317 1.25071 6.86518 1.237 6.99141 1.26091C7.11765 1.28482 7.22619 1.3422 7.31704 1.43305C7.40789 1.5239 7.46527 1.63244 7.48918 1.75867C7.51309 1.88491 7.49938 2.00692 7.44805 2.1247C7.07305 2.98563 6.875 4.08837 6.875 5.31259C6.875 9.6204 10.3797 13.1251 14.6875 13.1251C15.9117 13.1251 17.0145 12.927 17.8754 12.552C17.9932 12.5007 18.1152 12.487 18.2414 12.5109C18.3676 12.5348 18.4762 12.5922 18.567 12.683C18.6579 12.7739 18.7153 12.8824 18.7392 13.0087C18.7631 13.1349 18.7494 13.2569 18.698 13.3747C17.2766 16.6407 13.9844 18.7501 10.3125 18.7501Z" fill="#3E0288"/>
</g>
</g>
<defs>
<clipPath id="clip0_1_2937">
<rect width="20" height="20" fill="white"/>
</clipPath>
</defs>
</svg>
