<svg width="20" height="20" viewBox="0 0 20 20" fill="none" xmlns="http://www.w3.org/2000/svg">
<mask id="mask0_1_2841" style="mask-type:luminance" maskUnits="userSpaceOnUse" x="0" y="0" width="20" height="20">
<path d="M0 0H20V20H0V0Z" fill="white"/>
</mask>
<g mask="url(#mask0_1_2841)">
<path d="M17.1906 13.3324C17.1257 13.2543 17.0621 13.1762 16.9996 13.1008C16.1402 12.0613 15.6203 11.434 15.6203 8.49141C15.6203 6.96797 15.2558 5.71797 14.5375 4.78047C14.0078 4.08789 13.2918 3.5625 12.348 3.17422C12.342 3.17084 12.3363 3.16695 12.3309 3.16256C12.3255 3.15816 12.3205 3.15332 12.316 3.14805C11.9766 2.01133 11.0477 1.25 10 1.25C8.95234 1.25 8.02383 2.01133 7.68437 3.14687C7.67984 3.15196 7.67492 3.15663 7.66961 3.16089C7.6643 3.16515 7.65868 3.16894 7.65273 3.17227C5.45039 4.07891 4.38008 5.81836 4.38008 8.49023C4.38008 11.434 3.86094 12.0613 3.00078 13.0996C2.93828 13.175 2.87461 13.2516 2.80977 13.3313C2.63875 13.5375 2.53682 13.7736 2.50395 14.0394C2.47109 14.3053 2.51248 14.5591 2.62813 14.8008C2.86914 15.3086 3.38281 15.6238 3.96914 15.6238H16.0351C16.6187 15.6238 17.1289 15.309 17.3707 14.8035C17.4868 14.5618 17.5286 14.3078 17.496 14.0416C17.4634 13.7754 17.3616 13.539 17.1906 13.3324ZM10 18.75C10.575 18.7495 11.1092 18.6017 11.6027 18.3066C12.0962 18.0114 12.4791 17.6107 12.7515 17.1043C12.7791 17.0522 12.7776 17.001 12.7472 16.9506C12.7168 16.9001 12.6721 16.8749 12.6132 16.875H7.3875C7.32852 16.8748 7.28377 16.8999 7.25325 16.9504C7.22273 17.0009 7.22125 17.0522 7.24883 17.1043C7.52121 17.6106 7.9041 18.0113 8.3975 18.3065C8.8909 18.6016 9.42506 18.7495 10 18.75Z" fill="#3E0288"/>
</g>
</svg>
