<svg width="23" height="21" viewBox="0 0 23 21" fill="none" xmlns="http://www.w3.org/2000/svg">
<mask id="mask0_1_2895" style="mask-type:luminance" maskUnits="userSpaceOnUse" x="0" y="0" width="23" height="20">
<path d="M0 0H22.6816V20H0V0Z" fill="white"/>
</mask>
<g mask="url(#mask0_1_2895)">
</g>
<g clip-path="url(#clip0_1_2895)">
<mask id="mask1_1_2895" style="mask-type:luminance" maskUnits="userSpaceOnUse" x="0" y="0" width="23" height="21">
<path d="M0 0.5H22.6816V20.5H0V0.5Z" fill="white"/>
</mask>
<g mask="url(#mask1_1_2895)">
<path d="M9.66176 7.03008C9.66176 7.53789 9.66176 8.03008 9.84339 8.49102C7.93406 10.4676 2.89273 15.6902 2.42315 16.0887C2.32878 16.1633 2.25574 16.2517 2.20403 16.3538C2.15232 16.4559 2.12642 16.5628 2.12634 16.6746C2.12634 17.0066 2.3567 17.327 2.55162 17.5066C2.844 17.7762 4.09327 18.7957 4.32362 18.6004C5.00584 18.0145 5.14317 17.8582 5.42226 17.616C5.8431 17.2527 5.37796 16.5105 5.52414 16.2098C5.67034 15.909 5.82539 15.8504 6.0779 15.8035C6.3304 15.7566 6.77783 15.9168 7.12781 15.9207C7.4955 15.9246 7.69485 15.7879 7.9695 15.5613C8.19101 15.3816 8.35048 15.2137 8.35492 14.952C8.36377 14.6004 7.78788 14.1355 8.21758 13.7645C8.64729 13.3934 9.26749 14.0066 9.72378 13.9598C10.1801 13.9129 10.7338 13.3543 10.7914 13.116C10.849 12.8777 10.2731 12.2644 10.3617 11.9168C10.3927 11.7996 10.6629 11.5262 10.8667 11.4871C11.0705 11.4481 11.9742 11.7566 12.178 11.7176C12.4261 11.6707 12.714 11.4402 12.9488 11.3113C13.6354 11.573 14.2601 11.6785 15.0619 11.6785C18.0964 11.6785 20.5551 9.59258 20.5551 7.02226C20.5551 4.45195 18.0964 2.375 15.0619 2.375C12.0274 2.375 9.66176 4.45977 9.66176 7.03008ZM17.7199 6.125C17.7199 6.47018 17.5816 6.76481 17.3047 7.00888C17.0279 7.25296 16.6938 7.375 16.3023 7.375C15.9108 7.375 15.5767 7.25296 15.2999 7.00888C15.0231 6.76481 14.8847 6.47018 14.8847 6.125C14.8847 5.77982 15.0231 5.48519 15.2999 5.24112C15.5767 4.99704 15.9108 4.875 16.3023 4.875C16.6938 4.875 17.0279 4.99704 17.3047 5.24112C17.5816 5.48519 17.7199 5.77982 17.7199 6.125Z" fill="#3E0288"/>
</g>
</g>
<defs>
<clipPath id="clip0_1_2895">
<rect width="22.6816" height="20" fill="white" transform="translate(0 0.5)"/>
</clipPath>
</defs>
</svg>
