<svg width="38" height="38" viewBox="0 0 38 38" fill="none" xmlns="http://www.w3.org/2000/svg">
<mask id="mask0_57_708" style="mask-type:luminance" maskUnits="userSpaceOnUse" x="8" y="8" width="23" height="22">
<path d="M8 8H30.1538V30H8V8Z" fill="white"/>
<path d="M29.6543 8.5V29.5H8.5V8.5H29.6543Z" stroke="white"/>
</mask>
<g mask="url(#mask0_57_708)">
<mask id="mask1_57_708" style="mask-type:luminance" maskUnits="userSpaceOnUse" x="8" y="8" width="23" height="22">
<path d="M8 8H30.1538V30H8V8Z" fill="white"/>
<path d="M29.6543 8.5V29.5H8.5V8.5H29.6543Z" stroke="white"/>
</mask>
<g mask="url(#mask1_57_708)">
<mask id="path-5-inside-1_57_708" fill="white">
<path fill-rule="evenodd" clip-rule="evenodd" d="M26.7091 19.0041C26.7081 19.169 26.7015 19.3337 26.6894 19.4983C26.6871 19.5286 26.6847 19.5589 26.6821 19.5893L28.3341 20.876C28.339 20.8799 28.3439 20.8838 28.3487 20.8877C28.5668 21.0673 28.7007 21.2955 28.7504 21.5725C28.8001 21.8495 28.7538 22.1097 28.6116 22.353L26.7616 25.5316C26.6151 25.7769 26.4087 25.9457 26.1424 26.0381C25.8762 26.1305 25.6112 26.1269 25.3476 26.0273L23.3925 25.2463L23.3903 25.2471C23.2255 25.3598 23.0578 25.4655 22.8871 25.5642C22.717 25.6625 22.5434 25.7543 22.3663 25.8396L22.0752 27.8969C22.0741 27.9045 22.0729 27.9121 22.0716 27.9197C22.0234 28.1935 21.8931 28.421 21.6806 28.6021C21.4682 28.7833 21.2221 28.8768 20.9422 28.8826L17.2262 28.8828C16.9437 28.878 16.6968 28.7886 16.4855 28.6145C16.2742 28.4403 16.1409 28.2197 16.0856 27.9527C16.0826 27.9385 16.0802 27.9242 16.0781 27.9099L15.786 25.8552C15.6052 25.7685 15.4294 25.6755 15.2584 25.576C15.0878 25.4768 14.9216 25.371 14.7595 25.2586L12.8173 26.0349C12.5457 26.1378 12.2768 26.1431 12.0105 26.051C11.7443 25.9588 11.5391 25.7924 11.3951 25.5516L9.54022 22.3648C9.39828 22.1224 9.35219 21.8626 9.40193 21.5854C9.45167 21.3082 9.58577 21.0797 9.80422 20.9002C9.8088 20.8965 9.81342 20.8928 9.8181 20.8891L11.4693 19.6005C11.4505 19.3847 11.4412 19.1841 11.4412 18.9987C11.4412 18.8087 11.4503 18.6125 11.4687 18.4101L9.81579 17.1206C9.80925 17.1155 9.8028 17.1103 9.79644 17.105C9.58177 16.9247 9.45044 16.697 9.40245 16.422C9.35446 16.1469 9.40102 15.8886 9.54212 15.6471L11.3921 12.4685C11.5386 12.2231 11.745 12.0543 12.0113 11.9619C12.2776 11.8695 12.5425 11.8731 12.8062 11.9727L14.7613 12.7537L14.7635 12.7529C14.9282 12.6402 15.096 12.5345 15.2667 12.4358C15.4368 12.3375 15.6103 12.2457 15.7874 12.1604L16.0786 10.103C16.0796 10.0955 16.0808 10.0879 16.0822 10.0804C16.1304 9.80647 16.2607 9.57897 16.4731 9.39785C16.6855 9.21673 16.9317 9.12323 17.2116 9.11734L20.9275 9.11719C21.21 9.12197 21.4569 9.21142 21.6682 9.38553C21.8795 9.55964 22.0128 9.78024 22.0682 10.0473C22.0711 10.0615 22.0736 10.0758 22.0756 10.0901L22.3678 12.1449C22.5485 12.2315 22.7244 12.3246 22.8953 12.424C23.0659 12.5232 23.2321 12.629 23.3942 12.7414L25.3364 11.965C25.608 11.8622 25.877 11.8569 26.1432 11.9491C26.4095 12.0412 26.6146 12.2077 26.7587 12.4484L28.6135 15.6353C28.7555 15.8776 28.8016 16.1374 28.7518 16.4146C28.7021 16.6918 28.568 16.9202 28.3495 17.0998C28.345 17.1035 28.3403 17.1072 28.3357 17.1109L26.6824 18.4011C26.7002 18.6225 26.7091 18.8222 26.7091 19V19.0041ZM25.3245 18.998C25.3244 18.8572 25.3175 18.7003 25.3036 18.5272C25.2821 18.2949 25.3177 18.0716 25.4104 17.8572C25.5032 17.6429 25.6421 17.4633 25.8273 17.3184L27.3176 16.1564L25.6646 13.3161L23.911 14.0171C23.6945 14.1036 23.4703 14.1338 23.2385 14.1077C23.0066 14.0817 22.7945 14.0022 22.6022 13.8693C22.4701 13.7776 22.3346 13.6913 22.1955 13.6105C22.0565 13.5296 21.9155 13.4549 21.7728 13.3864C21.5631 13.2874 21.3894 13.145 21.2517 12.9594C21.114 12.7737 21.0286 12.566 20.9953 12.3363L20.7343 10.4922L17.4217 10.492L17.1586 12.3512C17.1269 12.5778 17.0433 12.7837 16.9079 12.9688C16.7725 13.1539 16.6009 13.2966 16.3933 13.3968C16.2471 13.4672 16.1037 13.5429 15.9633 13.6241C15.8229 13.7053 15.6868 13.7909 15.5551 13.881C15.3636 14.0135 15.1519 14.0931 14.92 14.1197C14.6881 14.1462 14.4628 14.1163 14.2443 14.0299L12.4908 13.3286L10.8375 16.1692L12.3231 17.3281C12.5067 17.471 12.6451 17.6487 12.7382 17.8611C12.8313 18.0735 12.868 18.2965 12.848 18.5301C12.8332 18.6927 12.8258 18.8489 12.8258 18.9987C12.8258 19.1445 12.8331 19.3021 12.8478 19.4712C12.8699 19.7031 12.8349 19.9262 12.7429 20.1406C12.651 20.3549 12.5121 20.5352 12.3265 20.6816L10.8361 21.8435L12.4892 24.6839L14.2428 23.983C14.4592 23.8964 14.6834 23.8662 14.9153 23.8923C15.1471 23.9183 15.3592 23.9978 15.5516 24.1307C15.6836 24.2224 15.8192 24.3086 15.9582 24.3895C16.0973 24.4704 16.2382 24.5451 16.381 24.6135C16.5907 24.7127 16.7643 24.855 16.902 25.0407C17.0397 25.2263 17.1252 25.434 17.1585 25.6638L17.4195 27.5078L20.732 27.508L20.9951 25.6488C21.0268 25.4222 21.1104 25.2164 21.2459 25.0313C21.3813 24.8461 21.5528 24.7035 21.7605 24.6033C21.9067 24.5329 22.05 24.4571 22.1905 24.3758C22.3309 24.2947 22.467 24.2091 22.5986 24.119C22.7902 23.9864 23.0019 23.9069 23.2338 23.8804C23.4657 23.8538 23.6909 23.8837 23.9094 23.9701L25.663 24.6715L27.3162 21.8307L25.5233 20.4343C25.4756 20.397 25.4334 20.3543 25.397 20.3061C25.3605 20.2579 25.331 20.2058 25.3083 20.1498C25.2856 20.0938 25.2706 20.0359 25.2634 19.976C25.2561 19.9162 25.2567 19.8564 25.2652 19.7966C25.2842 19.6641 25.2986 19.531 25.3085 19.3973C25.3183 19.265 25.3236 19.1326 25.3245 19V18.998ZM21.5234 16.5705C20.9403 15.9915 20.2386 15.6611 19.4182 15.5793L19.4171 15.5791C18.4214 15.4815 17.5473 15.7602 16.795 16.4151C16.0426 17.0701 15.65 17.8942 15.6172 18.8872C15.5844 19.8803 15.9217 20.7281 16.6292 21.4307C17.3367 22.1333 18.1904 22.4683 19.1904 22.4356C20.1905 22.403 21.0202 22.0132 21.6798 21.266C22.3394 20.5189 22.62 19.6509 22.5217 18.6622C22.4392 17.8467 22.1064 17.1495 21.5234 16.5705ZM19.2798 16.9474L19.281 16.9475C19.7733 16.9968 20.1944 17.1953 20.5443 17.5428C20.8945 17.8905 21.0943 18.3087 21.1437 18.7973C21.2027 19.3906 21.0343 19.9113 20.6386 20.3596C20.2429 20.8079 19.745 21.0418 19.145 21.0614C18.545 21.0809 18.0328 20.8799 17.6083 20.4584C17.1838 20.0368 16.9814 19.5282 17.0011 18.9323C17.0208 18.3365 17.2563 17.8421 17.7077 17.4491C18.1589 17.0563 18.6829 16.8891 19.2798 16.9474Z"/>
</mask>
<path fill-rule="evenodd" clip-rule="evenodd" d="M26.7091 19.0041C26.7081 19.169 26.7015 19.3337 26.6894 19.4983C26.6871 19.5286 26.6847 19.5589 26.6821 19.5893L28.3341 20.876C28.339 20.8799 28.3439 20.8838 28.3487 20.8877C28.5668 21.0673 28.7007 21.2955 28.7504 21.5725C28.8001 21.8495 28.7538 22.1097 28.6116 22.353L26.7616 25.5316C26.6151 25.7769 26.4087 25.9457 26.1424 26.0381C25.8762 26.1305 25.6112 26.1269 25.3476 26.0273L23.3925 25.2463L23.3903 25.2471C23.2255 25.3598 23.0578 25.4655 22.8871 25.5642C22.717 25.6625 22.5434 25.7543 22.3663 25.8396L22.0752 27.8969C22.0741 27.9045 22.0729 27.9121 22.0716 27.9197C22.0234 28.1935 21.8931 28.421 21.6806 28.6021C21.4682 28.7833 21.2221 28.8768 20.9422 28.8826L17.2262 28.8828C16.9437 28.878 16.6968 28.7886 16.4855 28.6145C16.2742 28.4403 16.1409 28.2197 16.0856 27.9527C16.0826 27.9385 16.0802 27.9242 16.0781 27.9099L15.786 25.8552C15.6052 25.7685 15.4294 25.6755 15.2584 25.576C15.0878 25.4768 14.9216 25.371 14.7595 25.2586L12.8173 26.0349C12.5457 26.1378 12.2768 26.1431 12.0105 26.051C11.7443 25.9588 11.5391 25.7924 11.3951 25.5516L9.54022 22.3648C9.39828 22.1224 9.35219 21.8626 9.40193 21.5854C9.45167 21.3082 9.58577 21.0797 9.80422 20.9002C9.8088 20.8965 9.81342 20.8928 9.8181 20.8891L11.4693 19.6005C11.4505 19.3847 11.4412 19.1841 11.4412 18.9987C11.4412 18.8087 11.4503 18.6125 11.4687 18.4101L9.81579 17.1206C9.80925 17.1155 9.8028 17.1103 9.79644 17.105C9.58177 16.9247 9.45044 16.697 9.40245 16.422C9.35446 16.1469 9.40102 15.8886 9.54212 15.6471L11.3921 12.4685C11.5386 12.2231 11.745 12.0543 12.0113 11.9619C12.2776 11.8695 12.5425 11.8731 12.8062 11.9727L14.7613 12.7537L14.7635 12.7529C14.9282 12.6402 15.096 12.5345 15.2667 12.4358C15.4368 12.3375 15.6103 12.2457 15.7874 12.1604L16.0786 10.103C16.0796 10.0955 16.0808 10.0879 16.0822 10.0804C16.1304 9.80647 16.2607 9.57897 16.4731 9.39785C16.6855 9.21673 16.9317 9.12323 17.2116 9.11734L20.9275 9.11719C21.21 9.12197 21.4569 9.21142 21.6682 9.38553C21.8795 9.55964 22.0128 9.78024 22.0682 10.0473C22.0711 10.0615 22.0736 10.0758 22.0756 10.0901L22.3678 12.1449C22.5485 12.2315 22.7244 12.3246 22.8953 12.424C23.0659 12.5232 23.2321 12.629 23.3942 12.7414L25.3364 11.965C25.608 11.8622 25.877 11.8569 26.1432 11.9491C26.4095 12.0412 26.6146 12.2077 26.7587 12.4484L28.6135 15.6353C28.7555 15.8776 28.8016 16.1374 28.7518 16.4146C28.7021 16.6918 28.568 16.9202 28.3495 17.0998C28.345 17.1035 28.3403 17.1072 28.3357 17.1109L26.6824 18.4011C26.7002 18.6225 26.7091 18.8222 26.7091 19V19.0041ZM25.3245 18.998C25.3244 18.8572 25.3175 18.7003 25.3036 18.5272C25.2821 18.2949 25.3177 18.0716 25.4104 17.8572C25.5032 17.6429 25.6421 17.4633 25.8273 17.3184L27.3176 16.1564L25.6646 13.3161L23.911 14.0171C23.6945 14.1036 23.4703 14.1338 23.2385 14.1077C23.0066 14.0817 22.7945 14.0022 22.6022 13.8693C22.4701 13.7776 22.3346 13.6913 22.1955 13.6105C22.0565 13.5296 21.9155 13.4549 21.7728 13.3864C21.5631 13.2874 21.3894 13.145 21.2517 12.9594C21.114 12.7737 21.0286 12.566 20.9953 12.3363L20.7343 10.4922L17.4217 10.492L17.1586 12.3512C17.1269 12.5778 17.0433 12.7837 16.9079 12.9688C16.7725 13.1539 16.6009 13.2966 16.3933 13.3968C16.2471 13.4672 16.1037 13.5429 15.9633 13.6241C15.8229 13.7053 15.6868 13.7909 15.5551 13.881C15.3636 14.0135 15.1519 14.0931 14.92 14.1197C14.6881 14.1462 14.4628 14.1163 14.2443 14.0299L12.4908 13.3286L10.8375 16.1692L12.3231 17.3281C12.5067 17.471 12.6451 17.6487 12.7382 17.8611C12.8313 18.0735 12.868 18.2965 12.848 18.5301C12.8332 18.6927 12.8258 18.8489 12.8258 18.9987C12.8258 19.1445 12.8331 19.3021 12.8478 19.4712C12.8699 19.7031 12.8349 19.9262 12.7429 20.1406C12.651 20.3549 12.5121 20.5352 12.3265 20.6816L10.8361 21.8435L12.4892 24.6839L14.2428 23.983C14.4592 23.8964 14.6834 23.8662 14.9153 23.8923C15.1471 23.9183 15.3592 23.9978 15.5516 24.1307C15.6836 24.2224 15.8192 24.3086 15.9582 24.3895C16.0973 24.4704 16.2382 24.5451 16.381 24.6135C16.5907 24.7127 16.7643 24.855 16.902 25.0407C17.0397 25.2263 17.1252 25.434 17.1585 25.6638L17.4195 27.5078L20.732 27.508L20.9951 25.6488C21.0268 25.4222 21.1104 25.2164 21.2459 25.0313C21.3813 24.8461 21.5528 24.7035 21.7605 24.6033C21.9067 24.5329 22.05 24.4571 22.1905 24.3758C22.3309 24.2947 22.467 24.2091 22.5986 24.119C22.7902 23.9864 23.0019 23.9069 23.2338 23.8804C23.4657 23.8538 23.6909 23.8837 23.9094 23.9701L25.663 24.6715L27.3162 21.8307L25.5233 20.4343C25.4756 20.397 25.4334 20.3543 25.397 20.3061C25.3605 20.2579 25.331 20.2058 25.3083 20.1498C25.2856 20.0938 25.2706 20.0359 25.2634 19.976C25.2561 19.9162 25.2567 19.8564 25.2652 19.7966C25.2842 19.6641 25.2986 19.531 25.3085 19.3973C25.3183 19.265 25.3236 19.1326 25.3245 19V18.998ZM21.5234 16.5705C20.9403 15.9915 20.2386 15.6611 19.4182 15.5793L19.4171 15.5791C18.4214 15.4815 17.5473 15.7602 16.795 16.4151C16.0426 17.0701 15.65 17.8942 15.6172 18.8872C15.5844 19.8803 15.9217 20.7281 16.6292 21.4307C17.3367 22.1333 18.1904 22.4683 19.1904 22.4356C20.1905 22.403 21.0202 22.0132 21.6798 21.266C22.3394 20.5189 22.62 19.6509 22.5217 18.6622C22.4392 17.8467 22.1064 17.1495 21.5234 16.5705ZM19.2798 16.9474L19.281 16.9475C19.7733 16.9968 20.1944 17.1953 20.5443 17.5428C20.8945 17.8905 21.0943 18.3087 21.1437 18.7973C21.2027 19.3906 21.0343 19.9113 20.6386 20.3596C20.2429 20.8079 19.745 21.0418 19.145 21.0614C18.545 21.0809 18.0328 20.8799 17.6083 20.4584C17.1838 20.0368 16.9814 19.5282 17.0011 18.9323C17.0208 18.3365 17.2563 17.8421 17.7077 17.4491C18.1589 17.0563 18.6829 16.8891 19.2798 16.9474Z" fill="#3E0288" stroke="#2E2E2E" stroke-opacity="0.2" stroke-width="2" mask="url(#path-5-inside-1_57_708)"/>
</g>
</g>
<circle cx="19" cy="19" r="19" fill="#3E0288" fill-opacity="0.05"/>
<circle cx="19" cy="19" r="18.5" stroke="#3E0288" stroke-opacity="0.01"/>
</svg>
